<mxfile host="65bd71144e" scale="2" border="0">
    <diagram id="CUeFqACA6s7p-ATiVsP6" name="Page-1">
        <mxGraphModel dx="1155" dy="787" grid="1" gridSize="10" guides="1" tooltips="1" connect="1" arrows="1" fold="1" page="1" pageScale="1" pageWidth="1100" pageHeight="850" background="#ffffff" math="0" shadow="0">
            <root>
                <mxCell id="0"/>
                <mxCell id="1" parent="0"/>
                <mxCell id="60" value="" style="swimlane;childLayout=stackLayout;resizeParent=1;resizeParentMax=0;horizontal=1;startSize=20;horizontalStack=0;html=1;" parent="1" vertex="1">
                    <mxGeometry x="20" y="70" width="850" height="570" as="geometry">
                        <mxRectangle x="30" y="60" width="70" height="30" as="alternateBounds"/>
                    </mxGeometry>
                </mxCell>
                <mxCell id="61" value="Internet" style="swimlane;startSize=20;horizontal=0;html=1;" parent="60" vertex="1">
                    <mxGeometry y="20" width="850" height="210" as="geometry"/>
                </mxCell>
                <mxCell id="80" style="edgeStyle=none;html=1;" parent="61" source="67" target="78" edge="1">
                    <mxGeometry relative="1" as="geometry"/>
                </mxCell>
                <mxCell id="67" value="Maestro" style="rounded=1;whiteSpace=wrap;html=1;fontSize=21;" parent="61" vertex="1">
                    <mxGeometry x="313" y="53.5" width="185" height="103" as="geometry"/>
                </mxCell>
                <mxCell id="74" style="edgeStyle=none;html=1;" parent="61" source="72" target="67" edge="1">
                    <mxGeometry relative="1" as="geometry"/>
                </mxCell>
                <mxCell id="72" value="&lt;br&gt;Postgresql" style="strokeWidth=2;html=1;shape=mxgraph.flowchart.database;whiteSpace=wrap;" parent="61" vertex="1">
                    <mxGeometry x="180" y="75" width="69.8" height="60" as="geometry"/>
                </mxCell>
                <mxCell id="79" style="edgeStyle=none;html=1;" parent="61" source="78" target="67" edge="1">
                    <mxGeometry relative="1" as="geometry"/>
                </mxCell>
                <mxCell id="78" value="Autenticação do&lt;br style=&quot;font-size: 15px;&quot;&gt;Google" style="rounded=1;whiteSpace=wrap;html=1;fontSize=15;" parent="61" vertex="1">
                    <mxGeometry x="580" y="80" width="135" height="50" as="geometry"/>
                </mxCell>
                <mxCell id="62" value="Rede Local" style="swimlane;startSize=20;horizontal=0;html=1;" parent="60" vertex="1">
                    <mxGeometry y="230" width="850" height="200" as="geometry"/>
                </mxCell>
                <mxCell id="3" value="Opus" style="rounded=1;whiteSpace=wrap;html=1;fontSize=21;" parent="62" vertex="1">
                    <mxGeometry x="313" y="58.5" width="185" height="103" as="geometry"/>
                </mxCell>
                <mxCell id="8" value="Drivers" style="rounded=1;whiteSpace=wrap;html=1;fontSize=17;" parent="62" vertex="1">
                    <mxGeometry x="580" y="83.25" width="100" height="50" as="geometry"/>
                </mxCell>
                <mxCell id="9" style="edgeStyle=none;html=1;entryX=1;entryY=0.5;entryDx=0;entryDy=0;fontSize=17;startArrow=classic;startFill=1;rounded=1;" parent="62" source="8" target="3" edge="1">
                    <mxGeometry relative="1" as="geometry"/>
                </mxCell>
                <mxCell id="11" value="Tasmota" style="ellipse;whiteSpace=wrap;html=1;rounded=1;fontSize=17;" parent="62" vertex="1">
                    <mxGeometry x="720" y="76.5" width="95.25" height="63.5" as="geometry"/>
                </mxCell>
                <mxCell id="13" style="edgeStyle=none;html=1;fontSize=17;rounded=1;" parent="62" source="8" target="11" edge="1">
                    <mxGeometry relative="1" as="geometry"/>
                </mxCell>
                <mxCell id="58" value="&lt;br&gt;SQLite" style="strokeWidth=2;html=1;shape=mxgraph.flowchart.database;whiteSpace=wrap;" parent="62" vertex="1">
                    <mxGeometry x="170" y="80" width="69.8" height="60" as="geometry"/>
                </mxCell>
                <mxCell id="59" style="edgeStyle=none;html=1;" parent="62" source="58" target="3" edge="1">
                    <mxGeometry relative="1" as="geometry"/>
                </mxCell>
                <mxCell id="39" style="edgeStyle=none;rounded=1;html=1;" parent="60" source="11" target="38" edge="1">
                    <mxGeometry relative="1" as="geometry"/>
                </mxCell>
                <mxCell id="68" style="edgeStyle=none;html=1;startArrow=classic;startFill=1;" parent="60" source="3" target="67" edge="1">
                    <mxGeometry relative="1" as="geometry"/>
                </mxCell>
                <mxCell id="77" style="edgeStyle=none;html=1;" parent="60" source="75" target="67" edge="1">
                    <mxGeometry relative="1" as="geometry">
                        <Array as="points">
                            <mxPoint x="120" y="230"/>
                            <mxPoint x="250" y="180"/>
                        </Array>
                    </mxGeometry>
                </mxCell>
                <mxCell id="63" value="Físico" style="swimlane;startSize=20;horizontal=0;html=1;" parent="60" vertex="1">
                    <mxGeometry y="430" width="850" height="140" as="geometry"/>
                </mxCell>
                <mxCell id="38" value="Microcontrolador" style="pointerEvents=1;shadow=0;dashed=0;html=1;strokeColor=none;fillColor=#000000;labelPosition=center;verticalLabelPosition=bottom;verticalAlign=top;align=center;outlineConnect=0;shape=mxgraph.veeam.cpu;rounded=1;" parent="63" vertex="1">
                    <mxGeometry x="745.22" y="47.60000000000006" width="44.8" height="44.8" as="geometry"/>
                </mxCell>
                <mxCell id="46" value="Ar-condicionado" style="verticalLabelPosition=bottom;outlineConnect=0;align=center;dashed=0;html=1;verticalAlign=top;shape=mxgraph.pid2misc.fan;fanType=common;rounded=1;strokeWidth=1;fontSize=12;fillColor=#FCFAFA;strokeColor=#000000;" parent="63" vertex="1">
                    <mxGeometry x="630" y="44.99999999999995" width="50" height="50" as="geometry"/>
                </mxCell>
                <mxCell id="47" style="edgeStyle=none;rounded=1;html=1;fontSize=26;" parent="63" source="38" target="46" edge="1">
                    <mxGeometry relative="1" as="geometry"/>
                </mxCell>
                <mxCell id="75" value="App Móvel" style="strokeColor=#dddddd;shadow=1;strokeWidth=1;rounded=1;absoluteArcSize=1;arcSize=2;labelPosition=center;verticalLabelPosition=middle;align=center;verticalAlign=bottom;spacingLeft=0;fontColor=#000000;fontSize=12;whiteSpace=wrap;spacingBottom=2;" parent="63" vertex="1">
                    <mxGeometry x="80" y="27.5" width="70" height="85" as="geometry"/>
                </mxCell>
                <mxCell id="76" value="" style="dashed=0;connectable=0;html=1;fillColor=#757575;strokeColor=none;shape=mxgraph.gcp2.phone;part=1;rounded=1;fontSize=17;" parent="75" vertex="1">
                    <mxGeometry x="0.5" width="32" height="50" relative="1" as="geometry">
                        <mxPoint x="-16" y="10" as="offset"/>
                    </mxGeometry>
                </mxCell>
            </root>
        </mxGraphModel>
    </diagram>
</mxfile>